<svg width="25" height="25" viewBox="0 0 24 24" fill="none">
    <path
        fill-rule="evenodd"
        clip-rule="evenodd"
        d="M6 21V5H18L17.999 21H13.0902V17.491H10.9088V21H6ZM7.63733 16.321H9.81868V13.982H7.63733V16.321ZM9.81868 12.8119H7.63733V10.4729H9.81868V12.8119ZM7.63733 9.30278H9.81868V6.9638H7.63733V9.30278ZM13.0912 16.321H10.9099V13.982H13.0912V16.321ZM10.9099 12.8119H13.0912V10.4729H10.9099V12.8119ZM13.0912 9.30278H10.9099V6.9638H13.0912V9.30278ZM14.1824 16.321H16.3638V13.982H14.1824V16.321ZM16.3638 12.8119H14.1824V10.4729H16.3638V12.8119ZM14.1824 9.30278H16.3638V6.9638H14.1824V9.30278Z"
        fill="#95979D"
    ></path>
</svg>