<svg width="15" height="15" viewBox="0 0 16 16" version="1.1">
    <path d="M13.6475 4.86314C13.2714 5.01772 13.0975 5.45007 13.2507 5.82258C13.3678 6.10929 13.6407 6.2773 13.932 6.2773C14.0259 6.2773 14.12 6.25411 14.2069 6.22097L14.2069 6.22102L14.2106 6.21952C14.586 6.06493 14.7606 5.6325 14.6071 5.25976C14.4526 4.88436 14.0202 4.70972 13.6475 4.86314ZM13.6475 4.86314L13.7045 5.00188L13.6474 4.86318C13.6474 4.86317 13.6474 4.86315 13.6475 4.86314ZM13.0516 2.94138C12.7659 2.6551 12.3035 2.6555 12.0171 2.94123L12.0169 2.94135C11.7309 3.22742 11.7309 3.6959 12.0169 3.98197L12.0169 3.98202L12.02 3.98498C12.1637 4.12064 12.3462 4.19488 12.5375 4.19488C12.7215 4.19488 12.9117 4.12238 13.0516 3.9819C13.3381 3.69584 13.3381 3.22743 13.0516 2.94138ZM13.0516 2.94138C13.0516 2.94142 13.0516 2.94145 13.0517 2.94148L12.9455 3.04741L13.0514 2.94123C13.0514 2.94128 13.0515 2.94133 13.0516 2.94138ZM13.8058 7.59381C13.7282 7.71018 13.683 7.84998 13.683 8.00028C13.683 11.1341 11.1335 13.6836 7.99972 13.6836C4.86591 13.6836 2.31643 11.1341 2.31643 8.00028C2.31643 4.86647 4.86591 2.31699 7.99972 2.31699H8.06188L8.06472 2.31415C8.19853 2.30239 8.32206 2.25466 8.42557 2.18069C8.45807 2.15826 8.4888 2.13341 8.51732 2.10644L8.51746 2.10659L8.52297 2.1008C8.55412 2.06803 8.58242 2.03227 8.60745 1.99421C8.68684 1.87701 8.73322 1.73564 8.73322 1.5835C8.73322 1.42818 8.68488 1.2841 8.60244 1.16548C8.57872 1.13028 8.5522 1.0971 8.52322 1.06646L8.52326 1.06642L8.52031 1.06347C8.47713 1.02029 8.42879 0.983923 8.37689 0.954352C8.26667 0.888104 8.13762 0.85 7.99972 0.85C4.05723 0.85 0.85 4.05723 0.85 7.99972C0.85 11.9214 4.02349 15.1156 7.9374 15.1492L7.93822 15.15H8.00028C11.9428 15.15 15.15 11.9428 15.15 8.00028C15.15 7.8328 15.0939 7.67837 14.9994 7.55484C14.9808 7.52973 14.9608 7.50579 14.9395 7.48324L14.9395 7.4832L14.9365 7.48025C14.8979 7.4416 14.8551 7.40841 14.8093 7.38066C14.6958 7.30856 14.5611 7.26678 14.4165 7.26678C14.2601 7.26678 14.1152 7.31567 13.9962 7.39897C13.9611 7.42235 13.9279 7.44901 13.8973 7.47893L13.8972 7.47887L13.8935 7.48269C13.861 7.51678 13.8316 7.55407 13.8058 7.59381ZM10.7397 1.39229L10.7388 1.39194C10.3611 1.23922 9.93453 1.41342 9.77994 1.78887C9.62661 2.16125 9.80018 2.59355 10.176 2.74841C10.2686 2.78735 10.3646 2.80095 10.4551 2.80095C10.7378 2.80095 11.0175 2.63472 11.1302 2.35227C11.2902 1.97861 11.1143 1.54655 10.7397 1.39229ZM10.0052 9.82257L10.0056 9.82274L10.594 8.64448L10.6611 8.51032L10.6609 8.51026L8.73322 7.54612V3.91636C8.73322 3.51142 8.40466 3.18287 7.99972 3.18287C7.59478 3.18287 7.26622 3.51142 7.26622 3.91636V7.99972C7.26622 8.27799 7.42297 8.53173 7.67179 8.65613L7.6718 8.65614L10.0052 9.82257Z" fill="#95979D" stroke="#95979D" stroke-width="0.3"></path>
</svg>